<?xml version="1.0" encoding="UTF-8"?>
<svg id="Livello_1" xmlns="http://www.w3.org/2000/svg" version="1.1" viewBox="0 0 1394.55 1080">
  <!-- Generator: Adobe Illustrator 30.4.0, SVG Export Plug-In . SVG Version: 2.1.3 Build 103)  -->
  <defs>
    <style>
      .st0 {
        fill: none;
        stroke: #1d1d1b;
        stroke-dasharray: 4.67 4.67;
        stroke-miterlimit: 10;
        stroke-width: 1.93px;
      }
    </style>
  </defs>
  <path class="st0" d="M1379.09,496.66c-6.68-9.85-13.44-19.76-20.28-29.68l.21-.23-.24.17c-101.16-146.81-217.57-297.52-279.31-336.13l-231.87-83.28-29.72-26.88-11.27,4.5c-27.71,11.07-74.36,18.23-109.61,18.23s-81.9-7.15-109.6-18.23l-11.27-4.5-25.3,23.29h-.23s.08.04.14.08l-3.81,3.51-231.87,83.28c-61.73,38.61-178.15,189.32-279.31,336.13l-.24-.17.21.23c-6.84,9.92-13.6,19.83-20.28,29.68,56.45,52.08,176.36,134.17,240.75,170.02l15.96-22.37,1.05.58-.97-.69,4.37-6.13.56.31-.52-.37,10.04-14.07-.99,394.21h-3.41,3.41l-.02,8.17h-2.74,2.74l-.08,33.28h823.36l-.08-33.29h2.62-2.62l-.02-8.18h3.26-3.26l-.96-394.15,10,14.02-.52.37.56-.31,4.37,6.13-.97.69,1.05-.58,15.96,22.37c64.39-35.84,184.3-117.94,240.75-170.02Z"/>
</svg>